<svg xmlns="http://www.w3.org/2000/svg" width="200" height="200" viewBox="0 0 200 200"><path fill="#F7941E" d="M2.917 2.916h193.667v193.668H2.917z"/><path fill="#AA6027" d="M193.667 5.833v187.834H5.833V5.833h187.834M199.5 0H0v199.5h199.5V0z"/><g fill="#92521E"><path d="M96.165 112.912H79.258l-4.2 16.396h-12.81l20.8-72.24h10.145l20.903 72.24H100.57l-4.405-16.396zm-14.14-10.45H93.91l-4.1-16.703-1.638-11.272h-.41L86.02 85.862l-3.995 16.6zM117.99 63.628c0-2.05.647-3.742 1.947-5.073 1.296-1.33 3.14-1.998 5.533-1.998 2.39 0 4.304.65 5.738 1.947 1.434 1.298 2.152 3.006 2.152 5.124s-.718 3.79-2.152 5.02c-1.434 1.23-3.348 1.845-5.738 1.845-2.392 0-4.236-.632-5.533-1.896-1.3-1.264-1.948-2.92-1.948-4.97zm1.33 14.446h12.194v51.234H119.32V78.074z"/></g><g fill="#92521E"><path d="M24.224 182.037h-4.696l-1.166 4.555h-3.558l5.777-20.066h2.82l5.805 20.066H25.45l-1.226-4.555zm-3.927-2.903H23.6l-1.14-4.64-.455-3.13h-.114l-.482 3.158-1.11 4.612zM40.59 181.583c0 .796.01 1.593.028 2.39.02.797.096 1.68.228 2.647h-2.39L38 184.97h-.114c-.645 1.327-1.773 1.99-3.387 1.99-1.444 0-2.576-.567-3.402-1.707-.826-1.14-1.238-2.988-1.238-5.55 0-2.504.446-4.406 1.338-5.705.89-1.3 2.22-1.95 3.984-1.95.454 0 .834.027 1.138.085.303.056.598.152.883.284v-5.75h3.387v14.916zm-5.293 2.276c.51 0 .92-.13 1.223-.386.305-.256.53-.63.684-1.124v-6.718c-.19-.17-.403-.293-.64-.37-.24-.074-.547-.113-.927-.113-.758 0-1.327.34-1.706 1.023-.38.684-.57 1.898-.57 3.645 0 1.31.158 2.31.47 3 .314.695.803 1.04 1.467 1.04zM42.525 179.476c0-2.524.493-4.4 1.48-5.635s2.363-1.85 4.127-1.85c1.897 0 3.31.625 4.24 1.877.93 1.255 1.396 3.124 1.396 5.608 0 2.544-.495 4.427-1.48 5.65-.987 1.225-2.372 1.835-4.155 1.835-3.738 0-5.608-2.494-5.608-7.484zm3.5 0c0 1.424.163 2.523.484 3.303.322.777.863 1.164 1.623 1.164.72 0 1.257-.336 1.608-1.01.35-.673.528-1.826.528-3.458 0-1.46-.163-2.57-.485-3.33-.322-.76-.873-1.14-1.65-1.14-.665 0-1.18.34-1.552 1.012-.37.672-.554 1.827-.554 3.458zM55.703 166.667h3.387v6.603h.085c.684-.833 1.66-1.252 2.933-1.252 1.347 0 2.395.56 3.145 1.68.75 1.12 1.125 2.922 1.125 5.408 0 2.695-.533 4.673-1.594 5.936-1.063 1.262-2.516 1.892-4.356 1.892-1.006 0-1.93-.096-2.773-.284-.845-.19-1.496-.4-1.95-.627v-19.356zm3.387 16.85c.398.21.92.313 1.565.313.72 0 1.272-.347 1.65-1.038.38-.692.57-1.854.57-3.487 0-1.44-.152-2.5-.455-3.172-.304-.675-.778-1.01-1.423-1.01-.95 0-1.584.492-1.907 1.478v6.917zM77.933 185.538c-.476.42-1.12.76-1.937 1.025-.815.266-1.67.397-2.56.397-.987 0-1.837-.17-2.55-.51-.71-.344-1.294-.837-1.75-1.48-.455-.647-.792-1.43-1.01-2.35-.22-.92-.327-1.97-.327-3.146 0-2.562.506-4.454 1.52-5.68 1.016-1.223 2.425-1.835 4.228-1.835.607 0 1.195.09 1.765.27.568.18 1.076.482 1.52.91.448.426.81.996 1.084 1.708.274.71.413 1.607.413 2.688 0 .42-.025.865-.073 1.34s-.118.985-.212 1.536H71.13c.038 1.178.285 2.078.74 2.703.455.627 1.186.94 2.192.94.605 0 1.162-.095 1.665-.285.502-.19.887-.39 1.152-.598l1.053 2.366zm-4.44-10.674c-.722 0-1.262.29-1.622.868-.36.58-.57 1.39-.626 2.434h3.928c.057-1.08-.057-1.902-.34-2.463-.286-.557-.732-.84-1.34-.84zM86.7 166.667h3.584v19.925H86.7v-19.925zM96.546 181.98c0 .664.065 1.138.2 1.423.13.284.35.427.654.427.17 0 .346-.02.526-.057.18-.038.384-.104.612-.2l.314 2.733c-.228.152-.618.294-1.167.427-.55.133-1.11.2-1.68.2-.948 0-1.66-.238-2.134-.712-.475-.474-.71-1.28-.71-2.42v-17.134h3.386v15.313zM103.464 181.98c0 .664.065 1.138.2 1.423.13.284.35.427.653.427.17 0 .346-.02.527-.057.18-.038.384-.104.61-.2l.315 2.733c-.23.152-.618.294-1.168.427-.55.133-1.11.2-1.68.2-.948 0-1.66-.238-2.134-.712-.475-.474-.71-1.28-.71-2.42v-17.134h3.386v15.313zM110.21 172.36v8.51c0 1.12.104 1.898.312 2.335.208.436.588.654 1.138.654.53 0 .977-.195 1.338-.585.36-.39.616-.858.77-1.41v-9.505h3.386v9.904c0 .778.028 1.542.085 2.292s.16 1.427.313 2.035h-2.563l-.597-1.936h-.085c-.36.664-.85 1.215-1.466 1.65-.617.437-1.38.655-2.29.655-.59 0-1.11-.08-1.567-.242-.455-.16-.844-.44-1.167-.84-.324-.398-.57-.943-.74-1.638-.17-.69-.256-1.568-.256-2.632v-9.25h3.388zM124.412 182.806c0-.4-.128-.735-.384-1.01-.257-.275-.584-.53-.982-.77-.397-.236-.82-.478-1.266-.726-.446-.245-.87-.55-1.266-.91-.4-.36-.727-.798-.983-1.31-.254-.513-.384-1.156-.384-1.936 0-1.33.36-2.353 1.083-3.074.72-.722 1.782-1.08 3.186-1.08.835 0 1.623.09 2.362.27.74.18 1.33.403 1.766.67l-.796 2.618c-.362-.152-.798-.3-1.31-.442-.513-.142-1.016-.213-1.51-.213-.93 0-1.394.39-1.394 1.166 0 .36.128.66.384.897.256.236.584.468.982.696.397.228.82.465 1.266.71.446.248.87.557 1.266.927.4.37.727.82.982 1.353.256.53.384 1.186.384 1.964 0 1.31-.397 2.362-1.195 3.16-.797.796-1.983 1.193-3.558 1.193-.78 0-1.542-.095-2.29-.285-.75-.188-1.354-.435-1.81-.74l.94-2.73c.4.228.86.427 1.38.597.522.17 1.067.257 1.637.257.436 0 .796-.1 1.08-.3.29-.2.43-.518.43-.954zM128.482 172.36h1.565v-2.676l3.387-1.054v3.73h2.762v3.017h-2.762v6.205c0 .815.08 1.394.243 1.735.16.342.45.512.867.512.285 0 .54-.03.77-.086.227-.058.473-.142.74-.255l.427 2.702c-.417.21-.9.385-1.452.526-.55.143-1.128.213-1.735.213-1.082 0-1.893-.31-2.434-.937-.542-.627-.813-1.68-.813-3.16v-7.456h-1.565v-3.017zM144.592 175.72c-.456-.17-.874-.258-1.253-.258-.514 0-.954.143-1.325.428-.37.284-.62.683-.753 1.196v9.506h-3.387V172.36h2.59l.397 1.708h.114c.246-.627.603-1.115 1.067-1.467.464-.35 1-.525 1.608-.525.457 0 .902.096 1.34.285l-.398 3.36zM146.243 173.213c.57-.34 1.28-.615 2.135-.825.855-.208 1.822-.312 2.903-.312 1.613 0 2.737.418 3.374 1.252.635.835.953 2.02.953 3.558 0 .894-.023 1.77-.07 2.635-.047.863-.08 1.71-.1 2.533-.02.825-.004 1.622.043 2.392.047.77.175 1.493.384 2.177h-2.76l-.54-1.736h-.115c-.305.55-.73 1.006-1.282 1.365-.55.36-1.243.542-2.078.542-1.12 0-2.002-.373-2.647-1.124-.645-.75-.967-1.75-.967-3.003 0-1.708.607-2.922 1.822-3.644 1.214-.718 2.856-1.023 4.924-.908.095-1.102.024-1.897-.214-2.392-.238-.493-.745-.74-1.52-.74-.57 0-1.16.066-1.766.2-.607.132-1.148.322-1.622.568l-.857-2.535zm4.07 10.674c.512 0 .93-.127 1.252-.383.323-.257.56-.536.712-.84V180.3c-.437-.056-.855-.065-1.252-.028-.4.04-.75.124-1.054.257-.304.132-.545.326-.725.583-.18.257-.27.583-.27.98 0 .59.118 1.035.355 1.34.24.302.565.454.983.454zM156.86 172.36h1.565v-2.676l3.387-1.054v3.73h2.76v3.017h-2.76v6.205c0 .815.08 1.394.243 1.735.16.342.45.512.867.512.285 0 .54-.03.77-.086.227-.058.473-.142.74-.255l.427 2.702c-.42.21-.903.385-1.453.526-.55.143-1.13.213-1.736.213-1.08 0-1.892-.31-2.433-.937-.54-.627-.81-1.68-.81-3.16v-7.456h-1.566v-3.017zM165.74 179.476c0-2.524.492-4.4 1.48-5.635s2.362-1.85 4.126-1.85c1.897 0 3.31.625 4.24 1.877.93 1.255 1.396 3.124 1.396 5.608 0 2.544-.495 4.427-1.48 5.65-.987 1.225-2.373 1.835-4.156 1.835-3.738 0-5.607-2.494-5.607-7.484zm3.5 0c0 1.424.162 2.523.484 3.303.322.777.863 1.164 1.623 1.164.72 0 1.257-.336 1.608-1.01.35-.673.527-1.826.527-3.458 0-1.46-.163-2.57-.485-3.33-.322-.76-.873-1.14-1.65-1.14-.665 0-1.18.34-1.55 1.012-.372.672-.557 1.827-.557 3.458zM185.634 175.72c-.456-.17-.873-.258-1.252-.258-.513 0-.953.143-1.324.428-.37.284-.622.683-.754 1.196v9.506h-3.387V172.36h2.59l.398 1.708h.114c.245-.627.6-1.115 1.066-1.467.464-.35 1-.525 1.608-.525.455 0 .9.096 1.338.285l-.398 3.36z"/></g></svg>