<svg xmlns="http://www.w3.org/2000/svg" width="200" height="200" viewBox="0 0 200 200"><path fill="#F5846F" d="M2.917 2.917h193.667v193.667H2.917z"/><path fill="#B32C39" d="M193.667 5.833v187.834H5.833V5.833h187.834M199.5 0H0v199.5h199.5V0z"/><g fill="#B32C39"><path d="M82.986 115.075c-1.495 1.195-3.288 2.093-5.38 2.69-2.092.596-4.184.895-6.275.895-3.048 0-5.603-.554-7.666-1.66-2.062-1.103-3.75-2.687-5.064-4.75-1.316-2.062-2.257-4.542-2.825-7.442-.568-2.898-.85-6.14-.85-9.728 0-7.83 1.402-13.718 4.212-17.663 2.81-3.945 6.934-5.917 12.373-5.917 2.69 0 4.887.24 6.59.717 1.704.48 3.213 1.076 4.528 1.793l-2.51 8.876c-1.076-.538-2.107-.942-3.093-1.21-.986-.27-2.168-.404-3.54-.404-2.512 0-4.395 1.09-5.65 3.272-1.255 2.184-1.883 5.694-1.883 10.535 0 4.064.642 7.382 1.928 9.952 1.284 2.57 3.33 3.855 6.142 3.855 1.493 0 2.764-.195 3.81-.584 1.045-.39 2.018-.88 2.915-1.48l2.24 8.252zM102.98 105.57c0-1.255-.405-2.314-1.212-3.183-.807-.864-1.838-1.672-3.093-2.42-1.255-.747-2.586-1.508-3.99-2.286-1.405-.775-2.735-1.732-3.99-2.868-1.255-1.135-2.286-2.51-3.094-4.125-.806-1.615-1.21-3.646-1.21-6.097 0-4.183 1.136-7.41 3.408-9.683 2.27-2.27 5.618-3.407 10.042-3.407 2.63 0 5.11.285 7.44.85 2.333.57 4.184 1.272 5.56 2.108l-2.51 8.25c-1.137-.48-2.51-.94-4.125-1.39-1.614-.45-3.2-.673-4.752-.673-2.93 0-4.393 1.226-4.393 3.676 0 1.137.404 2.08 1.21 2.825.808.75 1.838 1.48 3.094 2.196 1.255.72 2.584 1.467 3.99 2.243 1.403.778 2.733 1.75 3.99 2.914 1.253 1.166 2.285 2.586 3.092 4.258.807 1.674 1.21 3.737 1.21 6.187 0 4.125-1.255 7.44-3.766 9.952-2.51 2.51-6.247 3.766-11.207 3.766-2.452 0-4.857-.3-7.218-.896-2.36-.597-4.258-1.375-5.693-2.33l2.958-8.608c1.256.717 2.704 1.346 4.35 1.884 1.642.537 3.36.806 5.155.806 1.374 0 2.51-.314 3.406-.94.9-.63 1.35-1.63 1.35-3.005zM134.358 105.57c0-1.255-.403-2.314-1.21-3.183-.807-.864-1.838-1.672-3.093-2.42-1.255-.747-2.586-1.508-3.99-2.286-1.405-.775-2.734-1.732-3.99-2.868-1.254-1.135-2.286-2.51-3.093-4.125-.806-1.615-1.21-3.646-1.21-6.097 0-4.183 1.136-7.41 3.408-9.683 2.27-2.27 5.618-3.407 10.042-3.407 2.63 0 5.11.285 7.442.85 2.332.57 4.183 1.272 5.56 2.108l-2.51 8.25c-1.138-.48-2.512-.94-4.125-1.39-1.616-.45-3.2-.673-4.753-.673-2.93 0-4.394 1.226-4.394 3.676 0 1.137.404 2.08 1.21 2.825.81.75 1.84 1.48 3.095 2.196 1.255.72 2.584 1.467 3.99 2.243 1.403.778 2.734 1.75 3.99 2.914 1.253 1.166 2.285 2.586 3.092 4.258.807 1.674 1.21 3.737 1.21 6.187 0 4.125-1.254 7.44-3.765 9.952-2.51 2.51-6.246 3.766-11.207 3.766-2.452 0-4.857-.3-7.22-.896-2.36-.597-4.257-1.375-5.69-2.33l2.958-8.608c1.255.717 2.704 1.346 4.35 1.884 1.642.537 3.36.806 5.154.806 1.374 0 2.51-.314 3.407-.94.893-.63 1.34-1.63 1.34-3.005z"/></g></svg>