<svg xmlns="http://www.w3.org/2000/svg" width="200" height="200" viewBox="0 0 200 200"><path fill="#C2D952" d="M2.917 2.917h193.667v193.668h-193.667z"/><path fill="#006838" d="M193.667 5.833v187.835h-187.834v-187.835h187.834m5.833-5.833h-199.5v199.501h199.5v-199.501z"/><g fill="#006838"><path d="M50.63 121.767v-27.079c0-3.228-.374-5.559-1.121-6.993-.748-1.435-2.107-2.152-4.079-2.152-1.436 0-2.75.508-3.945 1.524-1.197 1.017-2.004 2.302-2.421 3.855v30.844h-10.67v-62.762h10.67v21.967h.269c1.195-1.554 2.645-2.809 4.349-3.766 1.703-.955 3.839-1.434 6.41-1.434 1.853 0 3.466.269 4.842.807 1.375.538 2.54 1.435 3.497 2.69.955 1.254 1.672 2.944 2.152 5.065.478 2.123.717 4.796.717 8.024v29.41h-10.67zM65.153 76.936h4.931v-8.428l10.67-3.317v11.745h8.697v9.504h-8.697v19.545c0 2.57.253 4.394.762 5.468.507 1.077 1.419 1.615 2.734 1.615.897 0 1.705-.089 2.421-.269.717-.179 1.493-.448 2.331-.807l1.346 8.517c-1.316.658-2.84 1.21-4.573 1.659-1.734.447-3.557.673-5.469.673-3.408 0-5.962-.986-7.666-2.961-1.704-1.971-2.556-5.289-2.556-9.95v-23.49h-4.931v-9.504zM115.45 121.767v-26.092c0-3.766-.3-6.38-.896-7.846-.597-1.463-1.764-2.197-3.496-2.197-1.435 0-2.615.464-3.541 1.39-.928.928-1.632 2.049-2.106 3.363v31.381h-10.671v-44.83h8.249l1.345 5.379h.268c1.137-1.852 2.557-3.391 4.26-4.617 1.702-1.224 3.96-1.838 6.771-1.838 2.328 0 4.227.509 5.691 1.524 1.465 1.018 2.615 2.81 3.453 5.379 1.133-2.151 2.629-3.839 4.481-5.065 1.854-1.224 4.034-1.838 6.545-1.838 1.973 0 3.66.255 5.066.761 1.404.509 2.539 1.39 3.407 2.646.865 1.254 1.508 2.974 1.927 5.155.418 2.183.628 4.947.628 8.293v29.051h-10.67v-27.256c0-3.049-.268-5.291-.807-6.725-.537-1.434-1.734-2.152-3.586-2.152-1.494 0-2.705.435-3.633 1.301-.925.867-1.598 2.048-2.016 3.542v31.292h-10.669zM165.031 107.24c0 2.093.208 3.587.627 4.482.418.898 1.106 1.346 2.062 1.346.539 0 1.09-.059 1.66-.179.565-.119 1.208-.328 1.927-.629l.985 8.607c-.717.479-1.942.926-3.675 1.346-1.734.417-3.496.628-5.29.628-2.99 0-5.23-.748-6.725-2.241-1.493-1.495-2.242-4.034-2.242-7.621v-53.975h10.67v48.236z"/></g></svg>