<svg xmlns="http://www.w3.org/2000/svg" width="200" height="200" viewBox="0 0 200 200"><path fill="#A94E9E" d="M2.424 2.924h194.152v194.152h-194.152z"/><path fill="#662D91" d="M193.652 5.848v188.305h-188.304v-188.305h188.304m5.848-5.848h-200v200h200v-200z"/><g fill="#662D91"><path d="M70.173 54.873h12.944v71.906h-12.944v-71.906zM130.162 108.7c0 2.877.034 5.752.104 8.628.068 2.876.342 6.061.822 9.552h-8.63l-1.642-5.958h-.413c-2.328 4.796-6.403 7.193-12.224 7.193-5.205 0-9.297-2.055-12.276-6.164-2.979-4.109-4.468-10.787-4.468-20.031 0-9.04 1.609-15.904 4.828-20.597 3.219-4.69 8.013-7.036 14.381-7.036 1.645 0 3.012.104 4.111.308 1.093.205 2.156.549 3.184 1.027v-20.749h12.223v53.827zm-19.106 8.217c1.85 0 3.32-.461 4.418-1.386 1.095-.926 1.917-2.276 2.466-4.059v-24.241c-.687-.617-1.457-1.062-2.312-1.336-.857-.272-1.971-.412-3.338-.412-2.739 0-4.794 1.233-6.164 3.697-1.371 2.467-2.054 6.85-2.054 13.149 0 4.726.564 8.339 1.694 10.837 1.13 2.503 2.892 3.751 5.29 3.751z"/></g><g fill="#662D91"><path d="M25.678 183.264h-4.944l-1.229 4.794h-3.746l6.084-21.121h2.966l6.113 21.121h-3.956l-1.288-4.794zm-4.135-3.055h3.475l-1.198-4.884-.479-3.297h-.12l-.51 3.326-1.168 4.855zM42.905 182.785c0 .839.01 1.679.029 2.518.019.839.1 1.766.239 2.786h-2.517l-.479-1.738h-.119c-.681 1.398-1.869 2.098-3.565 2.098-1.52 0-2.711-.601-3.581-1.798-.869-1.198-1.303-3.147-1.303-5.843 0-2.636.469-4.638 1.408-6.008.938-1.367 2.337-2.053 4.193-2.053.48 0 .88.031 1.199.091s.629.16.93.3v-6.052h3.565v15.699zm-5.573 2.398c.539 0 .968-.135 1.288-.406.319-.269.559-.662.72-1.183v-7.071c-.201-.179-.426-.309-.675-.39-.251-.079-.574-.119-.974-.119-.8 0-1.398.358-1.798 1.079-.399.719-.599 1.997-.599 3.834 0 1.379.165 2.434.493 3.162.331.728.846 1.094 1.545 1.094zM44.942 180.568c0-2.656.518-4.635 1.558-5.934 1.038-1.298 2.486-1.947 4.344-1.947 1.997 0 3.484.66 4.465 1.979.978 1.317 1.467 3.285 1.467 5.902 0 2.676-.519 4.659-1.558 5.948-1.038 1.286-2.497 1.932-4.374 1.932-3.937 0-5.902-2.626-5.902-7.88zm3.685 0c0 1.497.168 2.657.509 3.475.34.819.908 1.229 1.708 1.229.76 0 1.322-.354 1.692-1.062.37-.709.555-1.923.555-3.641 0-1.538-.169-2.707-.509-3.506-.341-.799-.919-1.198-1.738-1.198-.699 0-1.244.355-1.633 1.063-.391.708-.584 1.922-.584 3.64zM58.813 167.086h3.565v6.95h.089c.72-.88 1.748-1.318 3.087-1.318 1.417 0 2.521.589 3.31 1.769.789 1.179 1.184 3.076 1.184 5.691 0 2.836-.56 4.92-1.679 6.248-1.118 1.329-2.646 1.991-4.583 1.991-1.059 0-2.033-.1-2.92-.3-.889-.199-1.574-.418-2.053-.658v-20.373zm3.566 17.737c.419.218.968.328 1.647.328.759 0 1.339-.363 1.738-1.093.398-.729.599-1.952.599-3.671 0-1.517-.159-2.631-.479-3.341-.319-.708-.818-1.063-1.499-1.063-.998 0-1.668.521-2.006 1.559v7.281zM82.212 186.949c-.498.44-1.179.8-2.036 1.078-.86.28-1.759.421-2.698.421-1.038 0-1.932-.181-2.68-.541-.75-.358-1.364-.878-1.844-1.557s-.833-1.502-1.063-2.473c-.23-.968-.344-2.071-.344-3.31 0-2.696.533-4.688 1.602-5.978 1.069-1.288 2.551-1.933 4.449-1.933.64 0 1.259.095 1.858.284.599.19 1.134.511 1.603.959.47.45.849 1.049 1.138 1.798.29.748.435 1.693.435 2.832 0 .438-.024.908-.075 1.406-.05.5-.124 1.04-.224 1.62h-7.28c.039 1.238.3 2.186.779 2.846.479.659 1.247.987 2.307.987.64 0 1.223-.099 1.751-.299.53-.199.935-.409 1.215-.628l1.107 2.488zm-4.674-11.235c-.76 0-1.328.306-1.707.914-.381.609-.6 1.464-.659 2.562h4.134c.06-1.138-.06-2.002-.359-2.592-.301-.589-.77-.884-1.409-.884zM91.439 167.086h3.775v20.972h-3.775v-20.972zM105.611 188.058v-9.107c0-1.098-.13-1.868-.39-2.307-.259-.439-.699-.66-1.317-.66-.521 0-.97.161-1.349.479-.379.319-.648.72-.809 1.198v10.396h-3.565v-14.979h2.847l.419 1.737h.09c.359-.579.849-1.073 1.469-1.483.618-.409 1.428-.614 2.427-.614.6 0 1.133.089 1.603.27.469.182.864.475 1.184.884.32.411.559.96.72 1.649.159.688.238 1.542.238 2.561v9.977h-3.567zM111.693 167.086c.359-.062.764-.105 1.214-.137l1.378-.088c.468-.031.924-.05 1.363-.06.438-.011.829-.016 1.169-.016 1.657 0 3.042.254 4.149.765 1.108.509 1.997 1.227 2.667 2.156.668.929 1.143 2.043 1.422 3.34.28 1.3.42 2.748.42 4.346 0 1.457-.135 2.851-.404 4.179-.27 1.329-.745 2.498-1.423 3.505-.68 1.01-1.599 1.812-2.757 2.413-1.159.6-2.617.899-4.374.899-.261 0-.61-.011-1.05-.031-.438-.019-.898-.044-1.377-.075l-1.378-.09c-.44-.029-.779-.064-1.02-.104v-21.002zm5.512 3.176c-.318 0-.643.004-.973.015-.329.011-.584.036-.765.075v14.44l.315.046.479.029.479.03.314.015c.899 0 1.637-.21 2.217-.63s1.034-.979 1.363-1.678c.33-.697.561-1.502.689-2.411.13-.908.195-1.861.195-2.86 0-.92-.057-1.809-.165-2.667-.109-.86-.32-1.613-.63-2.263-.309-.649-.748-1.168-1.318-1.558-.566-.39-1.299-.583-2.2-.583zM137.789 186.949c-.499.44-1.179.8-2.037 1.078-.86.28-1.759.421-2.698.421-1.038 0-1.932-.181-2.68-.541-.749-.358-1.364-.878-1.844-1.557s-.833-1.502-1.063-2.473c-.229-.968-.343-2.071-.343-3.31 0-2.696.533-4.688 1.601-5.978 1.069-1.288 2.552-1.933 4.45-1.933.64 0 1.259.095 1.857.284.6.19 1.134.511 1.603.959.471.45.849 1.049 1.139 1.798.29.748.435 1.693.435 2.832 0 .438-.025.908-.075 1.406-.051.5-.124 1.04-.225 1.62h-7.28c.04 1.238.3 2.186.779 2.846.479.659 1.247.987 2.307.987.64 0 1.224-.099 1.752-.299.529-.199.935-.409 1.213-.628l1.109 2.488zm-4.676-11.235c-.759 0-1.326.306-1.706.914-.381.609-.599 1.464-.658 2.562h4.133c.06-1.138-.06-2.002-.358-2.592-.3-.589-.771-.884-1.411-.884zM145.519 184.073c0-.42-.134-.772-.404-1.062-.269-.29-.614-.561-1.033-.811-.42-.249-.864-.503-1.333-.763-.47-.261-.914-.579-1.334-.96-.419-.38-.764-.839-1.033-1.379-.27-.539-.404-1.217-.404-2.036 0-1.397.379-2.477 1.138-3.235s1.878-1.14 3.356-1.14c.879 0 1.707.096 2.487.285.779.19 1.397.424 1.857.704l-.839 2.756c-.381-.159-.839-.313-1.379-.464-.539-.148-1.069-.224-1.587-.224-.979 0-1.47.409-1.47 1.228 0 .38.136.694.405.944.27.249.614.493 1.033.733.42.24.864.489 1.334.748.469.262.913.586 1.333.974.419.391.764.864 1.033 1.425.271.559.404 1.248.404 2.065 0 1.38-.419 2.488-1.258 3.327-.839.838-2.088 1.259-3.745 1.259-.82 0-1.623-.101-2.412-.3-.788-.2-1.422-.459-1.901-.78l.987-2.876c.419.24.905.45 1.454.631.549.18 1.124.268 1.723.268.458 0 .839-.104 1.139-.314.299-.209.449-.543.449-1.003zM150.881 168.853c0-.599.19-1.093.57-1.483.379-.389.918-.583 1.617-.583.7 0 1.259.19 1.678.569.42.379.63.879.63 1.497 0 .619-.21 1.109-.63 1.469-.419.359-.978.54-1.678.54-.699 0-1.238-.186-1.617-.556-.38-.368-.57-.853-.57-1.453zm.39 4.225h3.565v14.979h-3.565v-14.979zM168.438 188.058c0 2.177-.499 3.78-1.499 4.81-.998 1.029-2.386 1.542-4.164 1.542-1.238 0-2.206-.094-2.905-.283-.699-.191-1.239-.396-1.618-.615l.748-3.025c.44.18.914.348 1.424.508.51.161 1.113.24 1.812.24 1.019 0 1.723-.274 2.113-.823.388-.549.583-1.383.583-2.503v-.809h-.089c-.281.4-.655.699-1.124.898-.471.199-1.074.3-1.812.3-1.578 0-2.763-.593-3.551-1.781s-1.184-3.073-1.184-5.649c0-2.775.544-4.823 1.634-6.142 1.088-1.318 2.64-1.979 4.657-1.979 1.08 0 2.049.086 2.907.256.858.169 1.547.375 2.067.614v14.441zm-5.542-2.816c.539 0 .963-.129 1.272-.391.31-.259.543-.629.704-1.108v-7.49c-.221-.099-.464-.18-.735-.239-.268-.06-.583-.09-.942-.09-.739 0-1.313.359-1.724 1.079-.41.718-.612 1.957-.612 3.716 0 3.014.678 4.523 2.037 4.523zM178.415 188.058v-9.107c0-1.098-.131-1.868-.39-2.307-.259-.439-.699-.66-1.317-.66-.521 0-.971.161-1.35.479-.378.319-.649.72-.808 1.198v10.396h-3.565v-14.979h2.847l.419 1.737h.09c.358-.579.848-1.073 1.468-1.483.619-.409 1.428-.614 2.427-.614.6 0 1.134.089 1.603.27.47.182.863.475 1.185.884.318.411.559.96.719 1.649.158.688.239 1.542.239 2.561v9.977h-3.567z"/></g></svg>