<svg xmlns="http://www.w3.org/2000/svg" width="200" height="200" viewBox="0 0 200 200"><path fill="#DAD7C5" d="M2.424 2.924h194.152v194.152h-194.152z"/><path fill="#767769" d="M193.652 5.847v188.305h-188.304v-188.305h188.304m5.848-5.847h-200v200h200v-200z"/><g fill="#767769"><path d="M78.514 72.849h10.695v46.83c0 5.452-.943 9.618-2.831 12.493-1.888 2.876-4.898 4.314-9.033 4.314-1.679 0-3.386-.209-5.124-.629v-9.528c2.577.239 4.269-.493 5.079-2.202.809-1.708 1.214-4.239 1.214-7.595v-43.683zm-1.26-12.673c0-1.798.569-3.281 1.708-4.449 1.139-1.168 2.755-1.753 4.854-1.753 2.098 0 3.775.57 5.034 1.708 1.258 1.139 1.888 2.638 1.888 4.495 0 1.858-.63 3.326-1.888 4.404-1.259 1.078-2.937 1.618-5.034 1.618-2.1 0-3.716-.553-4.854-1.663-1.139-1.109-1.708-2.563-1.708-4.36zM112.848 105.836c0-1.258-.405-2.321-1.214-3.19-.808-.867-1.842-1.677-3.101-2.427-1.257-.749-2.592-1.512-3.999-2.292-1.41-.778-2.742-1.737-4.001-2.876-1.258-1.138-2.291-2.517-3.102-4.134-.809-1.618-1.213-3.654-1.213-6.113 0-4.193 1.139-7.429 3.416-9.707 2.276-2.276 5.632-3.416 10.066-3.416 2.637 0 5.124.285 7.461.854 2.337.57 4.194 1.273 5.574 2.112l-2.518 8.27c-1.139-.479-2.519-.944-4.135-1.394-1.618-.449-3.206-.674-4.765-.674-2.937 0-4.404 1.229-4.404 3.685 0 1.139.405 2.083 1.213 2.831.811.75 1.843 1.483 3.102 2.202 1.259.72 2.592 1.469 3.999 2.248 1.408.78 2.742 1.753 4.002 2.921 1.256 1.169 2.291 2.593 3.1 4.27.81 1.678 1.214 3.746 1.214 6.202 0 4.135-1.258 7.461-3.775 9.977-2.517 2.519-6.263 3.774-11.235 3.774-2.458 0-4.869-.299-7.236-.897s-4.269-1.379-5.708-2.337l2.968-8.629c1.259.719 2.711 1.349 4.358 1.888s3.372.809 5.169.809c1.376 0 2.517-.314 3.416-.943.897-.631 1.348-1.634 1.348-3.014z"/></g><g fill="#767769"><path d="M49.572 167.086h3.774v15.25c0 .918-.074 1.753-.225 2.502-.149.749-.395 1.389-.735 1.917-.339.53-.787.939-1.347 1.228-.56.29-1.259.435-2.098.435-.58 0-1.154-.06-1.722-.179-.57-.121-1.085-.29-1.545-.511l.87-3.176c.419.262.908.391 1.468.391.698 0 1.133-.295 1.303-.884s.256-1.433.256-2.532v-14.441zM56.162 173.977c.6-.359 1.349-.649 2.247-.869.898-.219 1.918-.329 3.056-.329 1.698 0 2.881.438 3.552 1.317.668.88 1.003 2.128 1.003 3.746 0 .938-.024 1.862-.075 2.771-.05.91-.086 1.798-.104 2.667-.02.869-.006 1.708.044 2.517s.187 1.572.406 2.293h-2.907l-.569-1.828h-.12c-.318.58-.769 1.059-1.349 1.438-.58.378-1.308.568-2.186.568-1.18 0-2.107-.394-2.787-1.184-.68-.788-1.019-1.842-1.019-3.16 0-1.799.639-3.075 1.918-3.836 1.277-.759 3.005-1.077 5.183-.958.101-1.157.025-1.997-.224-2.518-.252-.518-.785-.779-1.604-.779-.599 0-1.218.071-1.857.211-.64.139-1.209.339-1.708.6l-.9-2.667zm4.284 11.235c.539 0 .979-.136 1.318-.404.34-.27.59-.564.749-.884v-2.486c-.459-.061-.898-.07-1.318-.03-.419.04-.79.131-1.108.27-.319.14-.574.345-.764.613-.19.271-.284.614-.284 1.034 0 .619.124 1.09.374 1.408.249.321.594.479 1.033.479zM73.061 180.898l.358 2.365h.119l.331-2.396 1.857-7.789h3.836l-5.035 15.13h-2.396l-5.304-15.13h4.165l2.069 7.82zM80.49 173.977c.6-.359 1.349-.649 2.247-.869.898-.219 1.918-.329 3.056-.329 1.698 0 2.881.438 3.552 1.317.669.88 1.003 2.128 1.003 3.746 0 .938-.025 1.862-.075 2.771-.05.91-.086 1.798-.104 2.667-.02.869-.005 1.708.045 2.517s.185 1.572.404 2.293h-2.905l-.57-1.828h-.119c-.32.58-.77 1.059-1.35 1.438-.579.378-1.308.568-2.187.568-1.178 0-2.107-.394-2.786-1.184-.68-.788-1.019-1.842-1.019-3.16 0-1.799.638-3.075 1.917-3.836 1.278-.759 3.006-1.077 5.184-.958.101-1.157.025-1.997-.225-2.518-.25-.518-.785-.779-1.604-.779-.599 0-1.218.071-1.857.211-.64.139-1.209.339-1.708.6l-.899-2.667zm4.284 11.235c.539 0 .979-.136 1.318-.404.34-.27.59-.564.749-.884v-2.486c-.459-.061-.898-.07-1.318-.03-.419.04-.79.131-1.108.27-.318.14-.574.345-.764.613-.191.271-.284.614-.284 1.034 0 .619.124 1.09.374 1.408.249.321.594.479 1.033.479zM100.233 182.664c0-.638-.188-1.182-.567-1.632-.381-.448-.854-.873-1.424-1.273-.569-.398-1.188-.809-1.857-1.228-.67-.42-1.289-.908-1.857-1.469-.57-.559-1.045-1.218-1.425-1.978-.378-.759-.567-1.688-.567-2.786 0-1.02.155-1.882.464-2.592.31-.709.734-1.289 1.273-1.737.539-.45 1.179-.78 1.917-.989.739-.21 1.529-.315 2.367-.315 1.019 0 1.967.101 2.847.3.878.2 1.607.471 2.188.811l-1.169 3.325c-.34-.239-.845-.46-1.513-.658-.669-.199-1.394-.301-2.173-.301s-1.378.161-1.797.479c-.42.319-.63.789-.63 1.407 0 .561.189 1.055.57 1.484.378.429.853.845 1.422 1.243.569.399 1.188.814 1.856 1.243.671.43 1.289.929 1.859 1.497.568.569 1.044 1.239 1.423 2.009s.57 1.684.57 2.741-.156 1.977-.466 2.757c-.311.778-.748 1.423-1.318 1.933-.568.508-1.254.894-2.053 1.153-.798.259-1.687.389-2.667.389-1.238 0-2.32-.12-3.25-.36-.93-.238-1.642-.509-2.141-.809l1.227-3.385c.399.238.948.479 1.649.719.699.24 1.447.36 2.247.36 1.997.001 2.995-.779 2.995-2.338zM114.825 187.249c-.499.399-1.099.699-1.798.899-.7.199-1.399.3-2.098.3-1.018 0-1.872-.185-2.562-.555-.688-.369-1.254-.898-1.693-1.589-.438-.689-.753-1.517-.942-2.486-.191-.968-.284-2.053-.284-3.25 0-2.617.468-4.585 1.407-5.902.938-1.318 2.317-1.979 4.136-1.979.898 0 1.632.08 2.2.24.57.16 1.075.36 1.513.6l-.837 2.966c-.361-.181-.704-.313-1.035-.404-.328-.09-.723-.135-1.183-.135-.839 0-1.469.364-1.888 1.093-.42.73-.629 1.903-.629 3.521 0 1.357.214 2.467.645 3.325.429.86 1.112 1.289 2.051 1.289.499 0 .925-.066 1.275-.195.35-.13.674-.296.974-.495l.748 2.757zM123.544 176.612c-.479-.18-.92-.269-1.319-.269-.54 0-1.004.149-1.392.449-.391.3-.655.719-.795 1.259v10.006h-3.565v-14.979h2.727l.42 1.797h.119c.26-.658.634-1.173 1.123-1.543.489-.368 1.054-.554 1.693-.554.479 0 .948.101 1.408.3l-.419 3.534zM125.162 168.853c0-.599.188-1.093.569-1.483.379-.389.919-.583 1.618-.583s1.257.19 1.678.569c.418.379.628.879.628 1.497 0 .619-.21 1.11-.628 1.469-.421.359-.979.54-1.678.54s-1.239-.186-1.618-.556c-.38-.368-.569-.853-.569-1.453zm.39 4.225h3.565v14.979h-3.565v-14.979zM131.993 173.078h2.666l.36 1.707h.088c.461-.718.975-1.243 1.544-1.572.568-.331 1.272-.495 2.112-.495 1.518 0 2.661.575 3.431 1.723.768 1.149 1.154 3.062 1.154 5.737 0 2.678-.48 4.73-1.439 6.158-.959 1.429-2.347 2.142-4.164 2.142-.48 0-.89-.04-1.229-.12-.34-.079-.658-.209-.958-.39v6.083h-3.565v-20.973zm3.566 11.624c.198.2.423.352.673.449.251.102.574.151.974.151.8 0 1.408-.395 1.828-1.185.419-.789.629-2.132.629-4.03 0-1.417-.16-2.471-.479-3.16-.32-.688-.851-1.033-1.588-1.033-1 0-1.678.588-2.037 1.767v7.041zM144.216 173.078h1.649v-2.816l3.564-1.109v3.926h2.906v3.175h-2.906v6.532c0 .859.085 1.468.254 1.828.17.359.475.538.914.538.299 0 .57-.028.809-.089.24-.06.499-.15.779-.271l.449 2.847c-.439.22-.948.404-1.528.554-.578.149-1.188.225-1.828.225-1.138 0-1.991-.328-2.561-.989-.569-.658-.853-1.766-.853-3.325v-7.85h-1.649v-3.176z"/></g></svg>