<svg xmlns="http://www.w3.org/2000/svg" width="200" height="200" viewBox="0 0 200 200"><path fill="#1C75BC" d="M2.917 2.916h193.667v193.668h-193.667z"/><path fill="#2B3990" d="M193.667 5.833v187.834h-187.834v-187.834h187.834m5.833-5.833h-199.5v199.5h199.5v-199.5z"/><g fill="#2B3990"><path d="M63.17 55.453c2.458-.547 5.157-.974 8.095-1.282 2.936-.308 5.874-.461 8.812-.461 3.141 0 6.232.292 9.274.871 3.039.582 5.752 1.726 8.146 3.432 2.39 1.71 4.336 4.116 5.839 7.225 1.501 3.109 2.254 7.157 2.254 12.145 0 4.508-.632 8.333-1.896 11.475-1.264 3.143-2.955 5.705-5.073 7.685-2.118 1.981-4.558 3.417-7.325 4.304-2.767.888-5.62 1.333-8.556 1.333h-1.332c-.615 0-1.265-.017-1.947-.053-.684-.033-1.35-.083-1.998-.152-.65-.067-1.112-.137-1.384-.207v24.696h-12.909v-71.011zm12.911 34.737c.41.135 1.179.255 2.306.357 1.126.103 1.895.153 2.305.153 1.502 0 2.937-.206 4.304-.614 1.366-.411 2.578-1.11 3.637-2.102 1.059-.989 1.896-2.357 2.511-4.099.614-1.741.921-3.945.921-6.608 0-2.254-.291-4.166-.871-5.738-.581-1.572-1.367-2.817-2.357-3.74-.991-.922-2.135-1.589-3.433-1.999-1.298-.409-2.664-.613-4.099-.613-2.118 0-3.86.17-5.226.511v24.492zM126.699 112.833c0-1.434-.461-2.646-1.385-3.637-.922-.989-2.099-1.912-3.534-2.768-1.436-.854-2.955-1.725-4.559-2.612-1.607-.887-3.126-1.98-4.561-3.278-1.436-1.298-2.613-2.869-3.534-4.714-.922-1.845-1.385-4.166-1.385-6.968 0-4.78 1.297-8.47 3.896-11.067 2.595-2.595 6.418-3.894 11.475-3.894 3.006 0 5.841.325 8.505.975 2.665.648 4.78 1.452 6.354 2.408l-2.87 9.426c-1.299-.545-2.869-1.076-4.714-1.587-1.846-.514-3.655-.77-5.431-.77-3.347 0-5.021 1.401-5.021 4.202 0 1.298.462 2.374 1.384 3.227.921.855 2.1 1.69 3.533 2.511 1.435.819 2.955 1.676 4.562 2.562 1.603.889 3.123 1.998 4.558 3.33 1.435 1.331 2.613 2.954 3.535 4.867.924 1.912 1.384 4.27 1.384 7.069 0 4.713-1.435 8.505-4.305 11.374-2.869 2.871-7.139 4.305-12.808 4.305-2.802 0-5.552-.344-8.248-1.026-2.698-.681-4.866-1.57-6.507-2.662l3.382-9.837c1.435.818 3.089 1.536 4.969 2.151 1.879.614 3.844.921 5.893.921 1.57 0 2.868-.358 3.895-1.076 1.026-.716 1.537-1.859 1.537-3.432z"/></g><g fill="#2B3990"><path d="M15.936 182.806h-4.931l-1.226 4.782h-3.736l6.067-21.069h2.959l6.097 21.069h-3.946l-1.284-4.782zm-4.124-3.048h3.466l-1.195-4.871-.479-3.288h-.12l-.508 3.317-1.164 4.842zM33.12 182.327c0 .837.01 1.675.029 2.512.02.837.1 1.762.239 2.78h-2.51l-.478-1.735h-.12c-.678 1.396-1.863 2.093-3.557 2.093-1.515 0-2.705-.598-3.571-1.794-.868-1.195-1.3-3.138-1.3-5.828 0-2.629.467-4.626 1.404-5.991.937-1.364 2.332-2.048 4.185-2.048.479 0 .877.03 1.195.091.318.06.628.159.927.299v-6.038h3.556v15.659zm-5.559 2.392c.538 0 .966-.134 1.286-.403.318-.269.557-.662.717-1.181v-7.054c-.2-.179-.424-.308-.672-.388-.25-.079-.573-.12-.972-.12-.798 0-1.396.358-1.793 1.077-.399.718-.598 1.991-.598 3.824 0 1.375.164 2.428.492 3.153.33.727.842 1.092 1.54 1.092zM35.152 180.116c0-2.648.518-4.622 1.554-5.918 1.036-1.295 2.48-1.943 4.333-1.943 1.992 0 3.476.659 4.453 1.975.976 1.314 1.465 3.276 1.465 5.887 0 2.67-.519 4.647-1.555 5.934-1.036 1.284-2.491 1.927-4.362 1.927-3.927-.001-5.888-2.621-5.888-7.862zm3.676 0c0 1.494.168 2.65.507 3.467.339.816.906 1.226 1.704 1.226.757 0 1.318-.353 1.688-1.061.368-.708.553-1.918.553-3.632 0-1.534-.169-2.698-.509-3.497-.339-.796-.916-1.194-1.733-1.194-.698 0-1.241.354-1.629 1.061-.388.705-.581 1.916-.581 3.63zM48.989 166.667h3.556v6.934h.089c.717-.877 1.743-1.314 3.079-1.314 1.415 0 2.515.589 3.302 1.764.786 1.176 1.181 3.069 1.181 5.678 0 2.83-.559 4.907-1.675 6.231-1.116 1.326-2.639 1.988-4.572 1.988-1.056 0-2.028-.101-2.913-.299-.887-.199-1.569-.419-2.047-.658v-20.324zm3.556 17.694c.418.218.966.328 1.643.328.758 0 1.336-.363 1.735-1.091.397-.728.597-1.948.597-3.661 0-1.515-.16-2.626-.478-3.333-.32-.706-.817-1.061-1.496-1.061-.997 0-1.664.519-2.001 1.555v7.263zM72.329 186.481c-.497.439-1.175.798-2.031 1.076-.858.278-1.754.419-2.691.419-1.035 0-1.927-.179-2.674-.539-.748-.357-1.36-.875-1.838-1.554-.479-.677-.831-1.498-1.061-2.466-.229-.966-.343-2.065-.343-3.302 0-2.689.532-4.676 1.598-5.963 1.066-1.285 2.545-1.927 4.438-1.927.638 0 1.256.094 1.854.283.597.191 1.13.51 1.598.957.468.448.846 1.046 1.135 1.793s.434 1.689.434 2.825c0 .438-.025.905-.075 1.403-.05.499-.124 1.036-.224 1.615h-7.262c.039 1.235.299 2.181.777 2.839.478.657 1.244.986 2.299.986.638 0 1.221-.1 1.749-.3.528-.198.931-.408 1.21-.627l1.107 2.482zm-4.662-11.207c-.757 0-1.325.304-1.702.912-.379.608-.598 1.46-.658 2.555h4.124c.06-1.135-.06-1.997-.358-2.584-.3-.588-.768-.883-1.406-.883zM81.206 166.877c.717-.16 1.503-.285 2.359-.373.858-.091 1.714-.136 2.572-.136.916 0 1.817.086 2.705.255.887.17 1.679.503 2.376 1 .696.499 1.265 1.201 1.703 2.107.438.907.658 2.088.658 3.543 0 1.314-.184 2.43-.552 3.346-.37.918-.863 1.664-1.48 2.242-.617.579-1.331.996-2.137 1.255-.808.259-1.64.39-2.496.39h-.389l-.567-.016-.583-.045-.403-.06v7.202h-3.765v-20.71zm3.765 10.132c.12.039.344.074.673.104.33.029.553.045.672.045.438 0 .856-.059 1.255-.179.398-.12.752-.323 1.061-.613.31-.288.553-.687.732-1.194.179-.508.27-1.151.27-1.928 0-.658-.085-1.215-.254-1.674-.17-.459-.399-.823-.688-1.091-.289-.27-.623-.463-1-.583-.378-.119-.777-.179-1.195-.179-.619 0-1.125.05-1.525.148v7.144zM102.813 187.588v-9.025c0-1.076-.125-1.853-.374-2.332-.251-.479-.702-.718-1.36-.718-.479 0-.916.17-1.315.509-.399.34-.667.768-.806 1.286v10.28h-3.557v-20.921h3.557v7.323h.088c.4-.519.883-.937 1.45-1.255.568-.32 1.28-.48 2.138-.48.617 0 1.154.091 1.613.271.457.18.847.479 1.166.896.318.419.558.981.717 1.688.158.708.24 1.6.24 2.676v9.802h-3.557zM108.281 180.116c0-2.648.518-4.622 1.555-5.918 1.035-1.295 2.481-1.943 4.334-1.943 1.991 0 3.475.659 4.452 1.975.976 1.314 1.465 3.276 1.465 5.887 0 2.67-.519 4.647-1.555 5.934-1.036 1.284-2.491 1.927-4.362 1.927-3.928-.001-5.889-2.621-5.889-7.862zm3.677 0c0 1.494.169 2.65.507 3.467.339.816.906 1.226 1.705 1.226.757 0 1.318-.353 1.688-1.061s.553-1.918.553-3.632c0-1.534-.169-2.698-.508-3.497-.339-.796-.916-1.194-1.732-1.194-.698 0-1.242.354-1.629 1.061-.391.705-.584 1.916-.584 3.63zM120.953 172.645h1.645v-2.809l3.556-1.106v3.915h2.899v3.168h-2.899v6.515c0 .857.085 1.466.253 1.823.17.359.474.539.912.539.299 0 .568-.029.807-.09.239-.06.498-.15.777-.27l.449 2.839c-.439.22-.946.404-1.525.554-.577.149-1.186.225-1.823.225-1.135 0-1.987-.328-2.555-.987-.568-.657-.851-1.762-.851-3.318v-7.829h-1.645v-3.169zM130.276 180.116c0-2.648.518-4.622 1.554-5.918 1.036-1.295 2.481-1.943 4.334-1.943 1.991 0 3.476.659 4.453 1.975.976 1.314 1.465 3.276 1.465 5.887 0 2.67-.519 4.647-1.556 5.934-1.035 1.284-2.49 1.927-4.362 1.927-3.927-.001-5.888-2.621-5.888-7.862zm3.677 0c0 1.494.168 2.65.508 3.467.338.816.905 1.226 1.703 1.226.757 0 1.319-.353 1.688-1.061.368-.708.553-1.918.553-3.632 0-1.534-.169-2.698-.508-3.497-.339-.796-.916-1.194-1.733-1.194-.698 0-1.241.354-1.629 1.061-.389.705-.582 1.916-.582 3.63zM149.133 183.612c0-.418-.133-.771-.402-1.06-.268-.289-.613-.559-1.031-.808-.418-.248-.861-.503-1.329-.762-.469-.26-.912-.577-1.33-.957-.419-.378-.763-.837-1.032-1.375-.269-.537-.402-1.215-.402-2.032 0-1.394.378-2.47 1.136-3.227.757-.758 1.873-1.138 3.347-1.138.877 0 1.703.097 2.481.285.776.189 1.394.423 1.853.703l-.837 2.749c-.38-.158-.836-.313-1.376-.464-.538-.148-1.065-.224-1.583-.224-.977 0-1.464.409-1.464 1.227 0 .378.134.691.402.94.27.249.613.493 1.031.733.419.238.862.486 1.331.746.468.259.911.583 1.329.971.418.39.762.862 1.031 1.421.27.557.402 1.245.402 2.061 0 1.376-.417 2.48-1.254 3.317s-2.083 1.256-3.736 1.256c-.817 0-1.619-.1-2.405-.299-.787-.199-1.419-.459-1.897-.778l.985-2.868c.418.239.902.449 1.45.629.547.179 1.121.269 1.719.269.457 0 .836-.105 1.136-.314.297-.207.445-.542.445-1.001zM161.985 187.588v-9.025c0-1.076-.125-1.853-.374-2.332-.25-.479-.702-.718-1.361-.718-.478 0-.916.17-1.314.509-.398.34-.667.768-.806 1.286v10.28h-3.557v-20.921h3.557v7.323h.089c.398-.519.883-.937 1.45-1.255.567-.32 1.279-.48 2.138-.48.616 0 1.154.091 1.613.271.457.18.846.479 1.165.896.319.419.559.981.718 1.688.158.708.239 1.6.239 2.676v9.802h-3.557zM167.454 180.116c0-2.648.517-4.622 1.554-5.918 1.036-1.295 2.48-1.943 4.333-1.943 1.992 0 3.477.659 4.454 1.975.975 1.314 1.464 3.276 1.464 5.887 0 2.67-.519 4.647-1.555 5.934-1.036 1.284-2.491 1.927-4.363 1.927-3.926-.001-5.887-2.621-5.887-7.862zm3.676 0c0 1.494.169 2.65.507 3.467.34.816.907 1.226 1.704 1.226.758 0 1.319-.353 1.689-1.061.368-.708.553-1.918.553-3.632 0-1.534-.17-2.698-.509-3.497-.339-.796-.915-1.194-1.733-1.194-.697 0-1.24.354-1.629 1.061-.389.705-.582 1.916-.582 3.63zM181.291 172.645h2.66l.357 1.704h.09c.459-.718.972-1.241 1.539-1.569.567-.329 1.27-.493 2.108-.493 1.513 0 2.654.573 3.421 1.718.767 1.146 1.151 3.055 1.151 5.724 0 2.671-.479 4.718-1.437 6.143-.955 1.425-2.34 2.136-4.154 2.136-.478 0-.887-.04-1.224-.119-.339-.079-.658-.209-.956-.39v6.068h-3.557v-20.922zm3.557 11.596c.198.199.422.349.671.448.25.1.572.149.971.149.799 0 1.405-.394 1.824-1.182.418-.786.628-2.126.628-4.019 0-1.415-.16-2.466-.478-3.153-.32-.688-.848-1.031-1.585-1.031-.996 0-1.673.588-2.031 1.763v7.025z"/></g></svg>